<?xml version="1.0" encoding="utf-8"?>
<!-- Generator: Adobe Illustrator 26.2.1, SVG Export Plug-In . SVG Version: 6.00 Build 0)  -->
<svg version="1.1" id="Layer_1" xmlns="http://www.w3.org/2000/svg" xmlns:xlink="http://www.w3.org/1999/xlink" x="0px" y="0px"
	 viewBox="0 0 910.76 791.77" style="enable-background:new 0 0 910.76 791.77;" xml:space="preserve">
<style type="text/css">
	.st0{fill:#FE711A;}
	.st1{fill:#240555;}
	.st2{fill:#FFFFFF;}
	.st3{fill:url(#SVGID_1_);}
	.st4{fill:url(#SVGID_00000103973317920800956380000000798297405684037052_);}
	.st5{fill:url(#SVGID_00000090252183998778547260000012027934069953118392_);}
	.st6{fill:url(#SVGID_00000065044700059768364710000002065496092269988260_);}
	.st7{fill:#5A5A5A;}
	.st8{fill:#D2D2D2;}
	.st9{fill:#FF0000;}
	.st10{fill:url(#SVGID_00000151512828581569679340000007125276291119857340_);}
	.st11{fill:url(#SVGID_00000089569857693505079570000014880268383737319859_);}
	.st12{fill:url(#SVGID_00000044891732708451640160000000635588306464494006_);}
	.st13{fill:url(#SVGID_00000083780976864566629190000018035070479979599801_);}
	.st14{fill:url(#SVGID_00000113340653336192670530000013216835145713750442_);}
	.st15{fill:url(#SVGID_00000049901698302199167310000017356826988119891134_);}
	.st16{fill:url(#SVGID_00000110469529441369506970000002767079823739302811_);}
	.st17{fill:url(#SVGID_00000075160378880895529000000010411117512900076208_);}
	.st18{fill:url(#SVGID_00000176018629702508651120000013843235257760806566_);}
	.st19{fill:url(#SVGID_00000168826687682777149320000017664490163410529211_);}
	.st20{fill:url(#SVGID_00000110452370674366585620000007882865912253457793_);}
	.st21{fill:url(#SVGID_00000039092373678816258310000017427970693107151745_);}
	.st22{fill:url(#SVGID_00000023280327360745159860000009566004098016671628_);}
	.st23{fill:url(#SVGID_00000039835145968851006200000013649723027578818969_);}
	.st24{fill:url(#SVGID_00000143605283630542950190000018127226827323715235_);}
	.st25{fill:url(#SVGID_00000155115709665613109710000014369326856347405446_);}
	.st26{fill:url(#SVGID_00000117642961913002499070000016431698474023214523_);}
	.st27{fill:url(#SVGID_00000070809575977180736010000013858803062684623496_);}
	.st28{fill:url(#SVGID_00000078767579424859465950000000523140586065816469_);}
	.st29{fill:url(#SVGID_00000009576644743726536560000001555787665318694538_);}
	.st30{fill:url(#SVGID_00000096775868247474799960000012241933660784273061_);}
	.st31{fill:url(#SVGID_00000077313707188818326430000013147628329297650849_);}
	.st32{fill:url(#SVGID_00000023970029580150534160000013324234867043676802_);}
	.st33{fill:url(#SVGID_00000145742734196471751750000005207273900694056892_);}
	.st34{fill:url(#SVGID_00000160175708027602508090000000617990581938478746_);}
	.st35{fill:url(#SVGID_00000171686543360386412230000009079853756282332073_);}
	.st36{fill:url(#SVGID_00000098183709589566322690000000783191353525014419_);}
	.st37{fill:url(#SVGID_00000109736164827931326020000010242651755035501749_);}
	.st38{fill:url(#SVGID_00000124851601493505888170000018440649441153591218_);}
	.st39{fill:url(#SVGID_00000058552323070579862520000003590099208472541579_);}
	.st40{fill:url(#SVGID_00000165235612156208539490000011970934575177878718_);}
	.st41{fill:url(#SVGID_00000045581229016844118190000004250814670769697442_);}
	.st42{fill:url(#SVGID_00000003821065730010226150000002701835831476031892_);}
	.st43{fill:url(#SVGID_00000147216155117493854040000016755740463380485012_);}
	.st44{fill:url(#SVGID_00000022535759061185490170000017488777778931899798_);}
	.st45{fill:url(#SVGID_00000009567180726023912310000018385157667060968072_);}
	.st46{fill:url(#SVGID_00000086690068804467745370000015361996026365946763_);}
	.st47{fill:url(#SVGID_00000043429950570683779280000000744933547256996744_);}
	.st48{fill:url(#SVGID_00000080896815180550980090000005089720935207732369_);}
	.st49{fill:url(#SVGID_00000082369826061199079080000006272393430463958186_);}
	.st50{fill:url(#SVGID_00000065753029159353639500000007614419588118452874_);}
	.st51{fill:url(#SVGID_00000160178449814508934990000015051446034410935695_);}
</style>
<rect class="st0" width="910.76" height="791.77"/>
<g>
	<path class="st1" d="M181.04,657.83c-0.96,0-1.72-0.2-2.27-0.61c-0.56-0.41-0.94-0.96-1.17-1.66c-0.22-0.7-0.33-1.49-0.33-2.36
		v-8.18h-2.16c-0.18,0-0.33-0.06-0.44-0.17c-0.11-0.11-0.17-0.26-0.17-0.44v-0.39c0-0.18,0.06-0.33,0.17-0.44
		c0.11-0.11,0.26-0.17,0.44-0.17h2.16v-4.66c0-0.18,0.05-0.33,0.17-0.44c0.11-0.11,0.26-0.17,0.45-0.17h0.47
		c0.18,0,0.33,0.06,0.44,0.17c0.11,0.11,0.17,0.26,0.17,0.44v4.66h3.44c0.19,0,0.33,0.06,0.45,0.17c0.11,0.11,0.17,0.26,0.17,0.44
		v0.39c0,0.18-0.06,0.33-0.17,0.44c-0.11,0.11-0.26,0.17-0.45,0.17h-3.44v8.07c0,0.98,0.16,1.75,0.48,2.3
		c0.32,0.55,0.9,0.83,1.73,0.83h1.5c0.18,0,0.33,0.06,0.44,0.17c0.11,0.11,0.17,0.26,0.17,0.44v0.39c0,0.18-0.06,0.33-0.17,0.44
		c-0.11,0.11-0.26,0.17-0.44,0.17H181.04z"/>
	<path class="st1" d="M201.26,658.11c-1.79,0-3.22-0.59-4.27-1.76c-1.06-1.17-1.66-2.71-1.8-4.62c-0.02-0.28-0.03-0.65-0.03-1.11
		c0-0.46,0.01-0.83,0.03-1.11c0.09-1.26,0.39-2.37,0.89-3.33c0.5-0.96,1.19-1.71,2.07-2.25c0.88-0.54,1.92-0.8,3.12-0.8
		c1.29,0,2.39,0.29,3.3,0.86c0.9,0.57,1.6,1.4,2.09,2.47c0.49,1.07,0.73,2.35,0.73,3.83v0.42c0,0.18-0.06,0.33-0.18,0.44
		c-0.12,0.11-0.27,0.17-0.46,0.17h-9.87c0,0.15,0,0.24,0,0.28c0.04,0.83,0.23,1.62,0.58,2.37c0.35,0.75,0.85,1.36,1.5,1.83
		c0.65,0.47,1.41,0.71,2.3,0.71c0.79,0,1.46-0.12,1.98-0.36c0.53-0.24,0.95-0.5,1.26-0.79c0.31-0.29,0.52-0.5,0.61-0.65
		c0.17-0.24,0.3-0.38,0.39-0.43c0.09-0.05,0.24-0.07,0.44-0.07h0.44c0.17,0,0.31,0.05,0.43,0.15c0.12,0.1,0.17,0.24,0.15,0.4
		c-0.02,0.26-0.16,0.58-0.43,0.96c-0.27,0.38-0.65,0.75-1.14,1.12c-0.49,0.37-1.09,0.67-1.79,0.92
		C202.92,657.99,202.13,658.11,201.26,658.11z M196.88,649.76h8.82v-0.11c0-0.92-0.18-1.76-0.53-2.5c-0.35-0.74-0.86-1.33-1.53-1.76
		c-0.67-0.43-1.46-0.65-2.39-0.65c-0.93,0-1.72,0.22-2.37,0.65c-0.66,0.43-1.16,1.02-1.5,1.76s-0.51,1.57-0.51,2.5V649.76z"/>
	<path class="st1" d="M226.28,658.11c-1.29,0-2.39-0.25-3.3-0.76c-0.91-0.51-1.6-1.24-2.07-2.2c-0.47-0.96-0.73-2.1-0.76-3.41
		c-0.02-0.28-0.03-0.65-0.03-1.11c0-0.46,0.01-0.83,0.03-1.11c0.04-1.33,0.29-2.47,0.76-3.42c0.47-0.95,1.16-1.68,2.07-2.19
		c0.9-0.51,2.01-0.76,3.3-0.76c0.98,0,1.83,0.13,2.54,0.4c0.71,0.27,1.3,0.62,1.76,1.05c0.46,0.43,0.81,0.91,1.05,1.43
		c0.24,0.52,0.37,1.03,0.39,1.53c0.02,0.18-0.04,0.33-0.17,0.44c-0.13,0.11-0.28,0.17-0.44,0.17h-0.39c-0.19,0-0.32-0.04-0.4-0.13
		c-0.08-0.08-0.17-0.23-0.26-0.46c-0.39-1.05-0.92-1.79-1.59-2.2c-0.67-0.42-1.5-0.62-2.48-0.62c-1.26,0-2.3,0.38-3.12,1.15
		c-0.82,0.77-1.26,2.02-1.32,3.76c-0.04,0.65-0.04,1.29,0,1.94c0.06,1.74,0.49,2.99,1.32,3.76c0.82,0.77,1.86,1.15,3.12,1.15
		c0.98,0,1.81-0.21,2.48-0.62c0.67-0.42,1.21-1.15,1.59-2.2c0.09-0.22,0.18-0.38,0.26-0.46c0.08-0.08,0.22-0.13,0.4-0.13h0.39
		c0.17,0,0.31,0.06,0.44,0.17c0.13,0.11,0.19,0.26,0.17,0.44c-0.02,0.41-0.1,0.81-0.25,1.22c-0.15,0.41-0.37,0.8-0.68,1.19
		c-0.31,0.39-0.68,0.73-1.12,1.03c-0.44,0.3-0.97,0.53-1.59,0.71C227.75,658.02,227.06,658.11,226.28,658.11z"/>
	<path class="st1" d="M246.05,657.83c-0.19,0-0.33-0.06-0.45-0.17c-0.11-0.11-0.17-0.26-0.17-0.44v-13.2c0-0.18,0.05-0.33,0.17-0.44
		c0.11-0.11,0.26-0.17,0.45-0.17h0.47c0.18,0,0.33,0.06,0.44,0.17c0.11,0.11,0.17,0.26,0.17,0.44v1.3c0.5-0.65,1.1-1.17,1.82-1.58
		c0.71-0.41,1.66-0.61,2.84-0.61c1.26,0,2.31,0.27,3.15,0.82c0.84,0.55,1.47,1.29,1.89,2.22c0.42,0.93,0.62,1.99,0.62,3.18v7.88
		c0,0.18-0.06,0.33-0.17,0.44c-0.11,0.11-0.26,0.17-0.44,0.17h-0.47c-0.19,0-0.33-0.06-0.44-0.17c-0.11-0.11-0.17-0.26-0.17-0.44
		v-7.74c0-1.48-0.36-2.64-1.08-3.48c-0.72-0.84-1.78-1.26-3.16-1.26c-1.31,0-2.37,0.42-3.18,1.26c-0.8,0.84-1.21,2-1.21,3.48v7.74
		c0,0.18-0.06,0.33-0.17,0.44c-0.11,0.11-0.26,0.17-0.44,0.17H246.05z"/>
	<path class="st1" d="M277.06,658.11c-1.33,0-2.44-0.28-3.34-0.83c-0.9-0.55-1.58-1.31-2.05-2.27c-0.47-0.96-0.73-2.03-0.76-3.22
		c-0.02-0.28-0.03-0.67-0.03-1.16c0-0.5,0.01-0.89,0.03-1.16c0.04-1.2,0.29-2.28,0.76-3.23s1.16-1.71,2.05-2.26
		c0.9-0.55,2.01-0.83,3.34-0.83c1.33,0,2.44,0.28,3.34,0.83c0.9,0.55,1.58,1.31,2.05,2.26s0.73,2.03,0.76,3.23
		c0.02,0.28,0.03,0.67,0.03,1.16c0,0.5-0.01,0.89-0.03,1.16c-0.04,1.18-0.29,2.26-0.76,3.22c-0.47,0.96-1.16,1.72-2.05,2.27
		C279.51,657.83,278.39,658.11,277.06,658.11z M277.06,656.5c1.29,0,2.35-0.42,3.16-1.25c0.81-0.83,1.25-2.03,1.3-3.61
		c0.02-0.28,0.03-0.62,0.03-1.03c0-0.41-0.01-0.75-0.03-1.03c-0.05-1.59-0.49-2.8-1.3-3.62c-0.81-0.82-1.87-1.23-3.16-1.23
		s-2.35,0.41-3.16,1.23c-0.81,0.82-1.25,2.03-1.3,3.62c-0.02,0.28-0.03,0.62-0.03,1.03c0,0.41,0.01,0.75,0.03,1.03
		c0.06,1.57,0.49,2.77,1.3,3.61C274.71,656.09,275.77,656.5,277.06,656.5z"/>
	<path class="st1" d="M297.45,657.83c-0.18,0-0.33-0.06-0.44-0.17c-0.11-0.11-0.17-0.26-0.17-0.44v-18.47
		c0-0.18,0.06-0.33,0.17-0.44c0.11-0.11,0.26-0.17,0.44-0.17h0.47c0.19,0,0.33,0.06,0.44,0.17c0.11,0.11,0.17,0.26,0.17,0.44v18.47
		c0,0.18-0.05,0.33-0.17,0.44c-0.11,0.11-0.26,0.17-0.44,0.17H297.45z"/>
	<path class="st1" d="M318.3,658.11c-1.33,0-2.44-0.28-3.34-0.83c-0.9-0.55-1.58-1.31-2.05-2.27c-0.47-0.96-0.73-2.03-0.76-3.22
		c-0.02-0.28-0.03-0.67-0.03-1.16c0-0.5,0.01-0.89,0.03-1.16c0.04-1.2,0.29-2.28,0.76-3.23s1.16-1.71,2.05-2.26
		c0.9-0.55,2.01-0.83,3.34-0.83c1.33,0,2.44,0.28,3.34,0.83c0.9,0.55,1.58,1.31,2.05,2.26s0.73,2.03,0.76,3.23
		c0.02,0.28,0.03,0.67,0.03,1.16c0,0.5-0.01,0.89-0.03,1.16c-0.04,1.18-0.29,2.26-0.76,3.22c-0.47,0.96-1.16,1.72-2.05,2.27
		C320.75,657.83,319.63,658.11,318.3,658.11z M318.3,656.5c1.29,0,2.35-0.42,3.16-1.25c0.81-0.83,1.25-2.03,1.3-3.61
		c0.02-0.28,0.03-0.62,0.03-1.03c0-0.41-0.01-0.75-0.03-1.03c-0.05-1.59-0.49-2.8-1.3-3.62c-0.81-0.82-1.87-1.23-3.16-1.23
		s-2.35,0.41-3.16,1.23c-0.81,0.82-1.25,2.03-1.3,3.62c-0.02,0.28-0.03,0.62-0.03,1.03c0,0.41,0.01,0.75,0.03,1.03
		c0.06,1.57,0.49,2.77,1.3,3.61C315.95,656.09,317.01,656.5,318.3,656.5z"/>
	<path class="st1" d="M343.43,663.93c-1.18,0-2.15-0.16-2.9-0.47c-0.75-0.31-1.33-0.7-1.75-1.15c-0.42-0.45-0.71-0.91-0.87-1.36
		c-0.17-0.45-0.26-0.82-0.28-1.1c-0.02-0.18,0.04-0.34,0.17-0.46c0.13-0.12,0.28-0.18,0.44-0.18h0.39c0.15,0,0.28,0.03,0.39,0.1
		c0.11,0.06,0.2,0.23,0.28,0.49c0.11,0.3,0.29,0.64,0.54,1.04c0.25,0.4,0.65,0.74,1.19,1.04c0.55,0.3,1.3,0.44,2.26,0.44
		c1.02,0,1.87-0.13,2.55-0.39c0.68-0.26,1.21-0.72,1.57-1.37c0.36-0.66,0.54-1.57,0.54-2.73v-1.91c-0.46,0.63-1.07,1.15-1.82,1.57
		c-0.75,0.42-1.7,0.62-2.84,0.62c-1.07,0-1.98-0.19-2.73-0.58c-0.75-0.39-1.35-0.91-1.82-1.55c-0.46-0.65-0.8-1.37-1.03-2.16
		c-0.22-0.79-0.34-1.6-0.36-2.41c-0.02-0.52-0.02-1.04,0-1.55c0.02-0.81,0.14-1.62,0.36-2.41c0.22-0.79,0.56-1.52,1.03-2.16
		c0.46-0.65,1.07-1.16,1.82-1.55c0.75-0.39,1.66-0.58,2.73-0.58c1.15,0,2.09,0.21,2.84,0.64c0.75,0.43,1.35,0.94,1.82,1.55v-1.28
		c0-0.18,0.05-0.34,0.17-0.46c0.11-0.12,0.26-0.18,0.44-0.18H349c0.18,0,0.34,0.06,0.46,0.18c0.12,0.12,0.18,0.27,0.18,0.46v13.51
		c0,1.18-0.18,2.26-0.53,3.22c-0.35,0.96-0.98,1.73-1.87,2.3C346.35,663.65,345.07,663.93,343.43,663.93z M343.46,656.5
		c1.05,0,1.9-0.25,2.55-0.75c0.65-0.5,1.12-1.12,1.43-1.87s0.48-1.5,0.51-2.26c0.02-0.28,0.03-0.61,0.03-1s-0.01-0.72-0.03-1
		c-0.04-0.76-0.21-1.51-0.51-2.26c-0.31-0.75-0.78-1.37-1.43-1.87c-0.65-0.5-1.5-0.75-2.55-0.75c-1.07,0-1.93,0.24-2.57,0.72
		c-0.64,0.48-1.1,1.11-1.37,1.89c-0.28,0.78-0.43,1.61-0.47,2.5c-0.02,0.52-0.02,1.04,0,1.55c0.04,0.89,0.19,1.72,0.47,2.5
		c0.28,0.78,0.74,1.41,1.37,1.89C341.53,656.26,342.39,656.5,343.46,656.5z"/>
	<path class="st1" d="M364.23,640.44c-0.19,0-0.33-0.06-0.45-0.17c-0.11-0.11-0.17-0.26-0.17-0.44v-1.05c0-0.18,0.06-0.34,0.17-0.46
		c0.11-0.12,0.26-0.18,0.45-0.18h1.05c0.18,0,0.34,0.06,0.46,0.18c0.12,0.12,0.18,0.27,0.18,0.46v1.05c0,0.18-0.06,0.33-0.18,0.44
		c-0.12,0.11-0.27,0.17-0.46,0.17H364.23z M364.54,657.83c-0.19,0-0.33-0.06-0.45-0.17c-0.11-0.11-0.17-0.26-0.17-0.44v-13.2
		c0-0.18,0.05-0.33,0.17-0.44c0.11-0.11,0.26-0.17,0.45-0.17h0.47c0.18,0,0.33,0.06,0.44,0.17c0.11,0.11,0.17,0.26,0.17,0.44v13.2
		c0,0.18-0.06,0.33-0.17,0.44c-0.11,0.11-0.26,0.17-0.44,0.17H364.54z"/>
	<path class="st1" d="M383.76,658.11c-0.89,0-1.7-0.18-2.45-0.55c-0.75-0.37-1.35-0.86-1.82-1.48c-0.46-0.62-0.69-1.32-0.69-2.09
		c0-1.26,0.51-2.26,1.53-3.02c1.02-0.76,2.34-1.25,3.97-1.47l4.38-0.61v-0.97c0-0.98-0.3-1.75-0.9-2.32
		c-0.6-0.56-1.56-0.85-2.87-0.85c-0.96,0-1.74,0.19-2.33,0.57c-0.59,0.38-1,0.87-1.22,1.48c-0.09,0.28-0.27,0.42-0.53,0.42h-0.44
		c-0.22,0-0.38-0.06-0.47-0.18c-0.09-0.12-0.14-0.26-0.14-0.43c0-0.26,0.1-0.58,0.29-0.97s0.49-0.77,0.9-1.15
		c0.41-0.38,0.93-0.7,1.58-0.96c0.65-0.26,1.43-0.39,2.36-0.39c1.09,0,1.99,0.15,2.7,0.44c0.71,0.3,1.27,0.68,1.66,1.15
		c0.4,0.47,0.68,0.99,0.85,1.57c0.17,0.57,0.25,1.14,0.25,1.69v9.24c0,0.18-0.06,0.33-0.17,0.44c-0.11,0.11-0.26,0.17-0.44,0.17
		h-0.47c-0.19,0-0.33-0.06-0.44-0.17c-0.11-0.11-0.17-0.26-0.17-0.44v-1.3c-0.22,0.33-0.54,0.67-0.94,1
		c-0.41,0.33-0.93,0.61-1.57,0.85C385.52,657.99,384.72,658.11,383.76,658.11z M384.03,656.5c0.85,0,1.63-0.18,2.33-0.55
		c0.7-0.37,1.26-0.94,1.68-1.71c0.42-0.77,0.62-1.73,0.62-2.9v-0.94l-3.58,0.5c-1.52,0.2-2.66,0.55-3.44,1.05
		c-0.78,0.5-1.16,1.13-1.16,1.89c0,0.61,0.18,1.11,0.53,1.5c0.35,0.39,0.8,0.68,1.35,0.87C382.9,656.4,383.46,656.5,384.03,656.5z"
		/>
	<path class="st1" d="M431.93,663.1c-0.19,0-0.33-0.06-0.44-0.17c-0.11-0.11-0.17-0.26-0.17-0.44v-6.57
		c-0.46,0.61-1.07,1.13-1.82,1.55c-0.75,0.43-1.7,0.64-2.84,0.64c-1.07,0-1.98-0.19-2.73-0.57s-1.35-0.88-1.82-1.51
		c-0.46-0.63-0.8-1.33-1.01-2.11s-0.34-1.57-0.37-2.39c-0.02-0.28-0.03-0.58-0.03-0.92c0-0.33,0.01-0.64,0.03-0.92
		c0.04-0.81,0.16-1.61,0.37-2.39c0.21-0.78,0.55-1.48,1.01-2.11c0.46-0.63,1.07-1.13,1.82-1.51c0.75-0.38,1.66-0.57,2.73-0.57
		c1.15,0,2.09,0.21,2.84,0.62c0.75,0.42,1.35,0.94,1.82,1.57v-1.3c0-0.18,0.05-0.33,0.17-0.44c0.11-0.11,0.26-0.17,0.44-0.17h0.47
		c0.18,0,0.33,0.06,0.44,0.17c0.11,0.11,0.17,0.26,0.17,0.44v18.47c0,0.18-0.06,0.33-0.17,0.44c-0.11,0.11-0.26,0.17-0.44,0.17
		H431.93z M426.83,656.5c1.03,0,1.88-0.24,2.52-0.72c0.65-0.48,1.13-1.08,1.46-1.8c0.32-0.72,0.5-1.45,0.51-2.19
		c0.02-0.28,0.03-0.64,0.03-1.08s-0.01-0.8-0.03-1.08c-0.02-0.76-0.19-1.51-0.5-2.26c-0.32-0.75-0.8-1.37-1.44-1.87
		c-0.65-0.5-1.5-0.75-2.55-0.75c-1.07,0-1.93,0.24-2.57,0.72c-0.64,0.48-1.1,1.11-1.37,1.89c-0.28,0.78-0.43,1.61-0.47,2.5
		c-0.02,0.52-0.02,1.04,0,1.55c0.04,0.89,0.19,1.72,0.47,2.5c0.28,0.78,0.74,1.41,1.37,1.89C424.9,656.26,425.76,656.5,426.83,656.5
		z"/>
	<path class="st1" d="M452.7,658.11c-1.26,0-2.3-0.27-3.12-0.82c-0.82-0.55-1.43-1.29-1.83-2.23c-0.4-0.94-0.6-2-0.6-3.16v-7.88
		c0-0.18,0.06-0.33,0.17-0.44c0.11-0.11,0.26-0.17,0.44-0.17h0.47c0.19,0,0.33,0.06,0.45,0.17c0.11,0.11,0.17,0.26,0.17,0.44v7.74
		c0,3.16,1.38,4.74,4.13,4.74c1.31,0,2.37-0.42,3.16-1.26c0.8-0.84,1.19-2,1.19-3.48v-7.74c0-0.18,0.05-0.33,0.17-0.44
		c0.11-0.11,0.26-0.17,0.44-0.17h0.47c0.18,0,0.33,0.06,0.44,0.17c0.11,0.11,0.17,0.26,0.17,0.44v13.2c0,0.18-0.06,0.33-0.17,0.44
		c-0.11,0.11-0.26,0.17-0.44,0.17h-0.47c-0.19,0-0.33-0.06-0.44-0.17c-0.11-0.11-0.17-0.26-0.17-0.44v-1.3
		c-0.5,0.65-1.1,1.17-1.79,1.58C454.85,657.91,453.91,658.11,452.7,658.11z"/>
	<path class="st1" d="M478.64,658.11c-1.79,0-3.22-0.59-4.27-1.76c-1.06-1.17-1.66-2.71-1.8-4.62c-0.02-0.28-0.03-0.65-0.03-1.11
		c0-0.46,0.01-0.83,0.03-1.11c0.09-1.26,0.39-2.37,0.89-3.33c0.5-0.96,1.19-1.71,2.07-2.25c0.88-0.54,1.92-0.8,3.12-0.8
		c1.29,0,2.39,0.29,3.3,0.86c0.9,0.57,1.6,1.4,2.09,2.47c0.49,1.07,0.73,2.35,0.73,3.83v0.42c0,0.18-0.06,0.33-0.18,0.44
		c-0.12,0.11-0.27,0.17-0.46,0.17h-9.87c0,0.15,0,0.24,0,0.28c0.04,0.83,0.23,1.62,0.58,2.37c0.35,0.75,0.85,1.36,1.5,1.83
		c0.65,0.47,1.41,0.71,2.3,0.71c0.79,0,1.46-0.12,1.98-0.36c0.53-0.24,0.95-0.5,1.26-0.79s0.52-0.5,0.61-0.65
		c0.17-0.24,0.3-0.38,0.39-0.43c0.09-0.05,0.24-0.07,0.44-0.07h0.44c0.17,0,0.31,0.05,0.43,0.15c0.12,0.1,0.17,0.24,0.15,0.4
		c-0.02,0.26-0.16,0.58-0.43,0.96c-0.27,0.38-0.65,0.75-1.14,1.12c-0.49,0.37-1.09,0.67-1.79,0.92
		C480.29,657.99,479.51,658.11,478.64,658.11z M474.25,649.76h8.82v-0.11c0-0.92-0.18-1.76-0.53-2.5c-0.35-0.74-0.86-1.33-1.53-1.76
		c-0.67-0.43-1.46-0.65-2.39-0.65c-0.93,0-1.72,0.22-2.37,0.65c-0.66,0.43-1.16,1.02-1.5,1.76c-0.34,0.74-0.51,1.57-0.51,2.5V649.76
		z"/>
	<path class="st1" d="M519.35,657.83c-0.96,0-1.72-0.2-2.27-0.61c-0.56-0.41-0.94-0.96-1.17-1.66c-0.22-0.7-0.33-1.49-0.33-2.36
		v-8.18h-2.16c-0.18,0-0.33-0.06-0.44-0.17c-0.11-0.11-0.17-0.26-0.17-0.44v-0.39c0-0.18,0.06-0.33,0.17-0.44
		c0.11-0.11,0.26-0.17,0.44-0.17h2.16v-4.66c0-0.18,0.05-0.33,0.17-0.44c0.11-0.11,0.26-0.17,0.45-0.17h0.47
		c0.18,0,0.33,0.06,0.44,0.17c0.11,0.11,0.17,0.26,0.17,0.44v4.66h3.44c0.19,0,0.33,0.06,0.45,0.17c0.11,0.11,0.17,0.26,0.17,0.44
		v0.39c0,0.18-0.06,0.33-0.17,0.44c-0.11,0.11-0.26,0.17-0.45,0.17h-3.44v8.07c0,0.98,0.16,1.75,0.48,2.3
		c0.32,0.55,0.9,0.83,1.73,0.83h1.5c0.18,0,0.33,0.06,0.44,0.17c0.11,0.11,0.17,0.26,0.17,0.44v0.39c0,0.18-0.06,0.33-0.17,0.44
		c-0.11,0.11-0.26,0.17-0.44,0.17H519.35z"/>
	<path class="st1" d="M534.83,657.83c-0.19,0-0.33-0.06-0.45-0.17c-0.11-0.11-0.17-0.26-0.17-0.44v-13.17
		c0-0.18,0.05-0.34,0.17-0.46c0.11-0.12,0.26-0.18,0.45-0.18h0.44c0.18,0,0.34,0.06,0.46,0.18c0.12,0.12,0.18,0.27,0.18,0.46v1.28
		c0.33-0.65,0.81-1.13,1.44-1.44c0.63-0.31,1.41-0.47,2.33-0.47h1.03c0.18,0,0.33,0.06,0.44,0.17c0.11,0.11,0.17,0.26,0.17,0.44
		v0.39c0,0.18-0.06,0.33-0.17,0.44c-0.11,0.11-0.26,0.17-0.44,0.17h-1.19c-1.11,0-1.99,0.32-2.63,0.97s-0.97,1.53-0.97,2.63v8.6
		c0,0.18-0.06,0.33-0.18,0.44c-0.12,0.11-0.27,0.17-0.46,0.17H534.83z"/>
	<path class="st1" d="M557.29,658.11c-0.89,0-1.7-0.18-2.45-0.55c-0.75-0.37-1.35-0.86-1.82-1.48c-0.46-0.62-0.69-1.32-0.69-2.09
		c0-1.26,0.51-2.26,1.53-3.02c1.02-0.76,2.34-1.25,3.97-1.47l4.38-0.61v-0.97c0-0.98-0.3-1.75-0.9-2.32
		c-0.6-0.56-1.56-0.85-2.87-0.85c-0.96,0-1.74,0.19-2.33,0.57c-0.59,0.38-1,0.87-1.22,1.48c-0.09,0.28-0.27,0.42-0.53,0.42h-0.44
		c-0.22,0-0.38-0.06-0.47-0.18c-0.09-0.12-0.14-0.26-0.14-0.43c0-0.26,0.1-0.58,0.29-0.97s0.49-0.77,0.9-1.15
		c0.41-0.38,0.93-0.7,1.58-0.96c0.65-0.26,1.43-0.39,2.36-0.39c1.09,0,1.99,0.15,2.7,0.44c0.71,0.3,1.27,0.68,1.66,1.15
		c0.4,0.47,0.68,0.99,0.85,1.57c0.17,0.57,0.25,1.14,0.25,1.69v9.24c0,0.18-0.06,0.33-0.17,0.44c-0.11,0.11-0.26,0.17-0.44,0.17
		h-0.47c-0.19,0-0.33-0.06-0.44-0.17c-0.11-0.11-0.17-0.26-0.17-0.44v-1.3c-0.22,0.33-0.54,0.67-0.94,1
		c-0.41,0.33-0.93,0.61-1.57,0.85C559.05,657.99,558.25,658.11,557.29,658.11z M557.57,656.5c0.85,0,1.63-0.18,2.33-0.55
		c0.7-0.37,1.26-0.94,1.68-1.71c0.42-0.77,0.62-1.73,0.62-2.9v-0.94l-3.58,0.5c-1.52,0.2-2.66,0.55-3.44,1.05
		c-0.78,0.5-1.16,1.13-1.16,1.89c0,0.61,0.18,1.11,0.53,1.5c0.35,0.39,0.8,0.68,1.35,0.87C556.44,656.4,557,656.5,557.57,656.5z"/>
	<path class="st1" d="M578.65,657.83c-0.19,0-0.33-0.06-0.45-0.17c-0.11-0.11-0.17-0.26-0.17-0.44v-13.2c0-0.18,0.05-0.33,0.17-0.44
		c0.11-0.11,0.26-0.17,0.45-0.17h0.47c0.18,0,0.33,0.06,0.44,0.17c0.11,0.11,0.17,0.26,0.17,0.44v1.3c0.5-0.65,1.1-1.17,1.82-1.58
		c0.71-0.41,1.66-0.61,2.84-0.61c1.26,0,2.31,0.27,3.15,0.82c0.84,0.55,1.47,1.29,1.89,2.22c0.42,0.93,0.62,1.99,0.62,3.18v7.88
		c0,0.18-0.06,0.33-0.17,0.44c-0.11,0.11-0.26,0.17-0.44,0.17h-0.47c-0.19,0-0.33-0.06-0.44-0.17c-0.11-0.11-0.17-0.26-0.17-0.44
		v-7.74c0-1.48-0.36-2.64-1.08-3.48c-0.72-0.84-1.78-1.26-3.16-1.26c-1.31,0-2.37,0.42-3.18,1.26c-0.8,0.84-1.21,2-1.21,3.48v7.74
		c0,0.18-0.06,0.33-0.17,0.44c-0.11,0.11-0.26,0.17-0.44,0.17H578.65z"/>
	<path class="st1" d="M608.74,658.11c-0.96,0-1.79-0.13-2.48-0.39c-0.69-0.26-1.26-0.57-1.71-0.93c-0.44-0.36-0.77-0.72-0.98-1.07
		c-0.21-0.35-0.33-0.62-0.35-0.8c-0.02-0.2,0.05-0.36,0.19-0.46c0.15-0.1,0.29-0.15,0.42-0.15h0.42c0.11,0,0.21,0.02,0.29,0.06
		c0.08,0.04,0.19,0.14,0.32,0.31c0.24,0.31,0.52,0.61,0.83,0.9c0.31,0.29,0.72,0.51,1.21,0.68c0.49,0.17,1.11,0.25,1.84,0.25
		c1.11,0,2.02-0.21,2.75-0.64c0.72-0.43,1.08-1.05,1.08-1.89c0-0.52-0.14-0.93-0.43-1.25c-0.29-0.31-0.77-0.59-1.46-0.83
		c-0.68-0.24-1.61-0.49-2.77-0.75c-1.16-0.28-2.06-0.61-2.68-1c-0.62-0.39-1.04-0.84-1.26-1.35c-0.22-0.51-0.33-1.06-0.33-1.65
		c0-0.65,0.18-1.28,0.55-1.9c0.37-0.62,0.92-1.13,1.65-1.53c0.73-0.4,1.65-0.6,2.76-0.6c0.91,0,1.68,0.12,2.32,0.36
		c0.64,0.24,1.16,0.53,1.57,0.87c0.41,0.34,0.71,0.68,0.9,1.01c0.19,0.33,0.3,0.6,0.32,0.8c0.02,0.18-0.04,0.33-0.17,0.44
		c-0.13,0.11-0.28,0.17-0.44,0.17h-0.42c-0.15,0-0.27-0.03-0.36-0.1s-0.18-0.15-0.25-0.26c-0.19-0.3-0.41-0.57-0.67-0.83
		c-0.26-0.26-0.61-0.47-1.04-0.62c-0.43-0.16-1.02-0.24-1.76-0.24c-1.11,0-1.93,0.23-2.47,0.68c-0.54,0.45-0.8,1.03-0.8,1.73
		c0,0.41,0.11,0.76,0.33,1.07c0.22,0.31,0.64,0.58,1.25,0.83c0.61,0.25,1.5,0.51,2.66,0.79c1.18,0.26,2.12,0.58,2.8,0.96
		c0.68,0.38,1.17,0.83,1.46,1.34c0.29,0.52,0.43,1.13,0.43,1.83c0,0.74-0.21,1.42-0.62,2.05c-0.42,0.63-1.04,1.13-1.86,1.51
		C610.95,657.92,609.94,658.11,608.74,658.11z"/>
	<path class="st1" d="M629.54,657.83c-0.19,0-0.33-0.06-0.44-0.17c-0.11-0.11-0.17-0.26-0.17-0.44v-12.2h-2.47
		c-0.19,0-0.33-0.06-0.44-0.17c-0.11-0.11-0.17-0.26-0.17-0.44v-0.39c0-0.18,0.05-0.33,0.17-0.44c0.11-0.11,0.26-0.17,0.44-0.17
		h2.47v-1.58c0-0.83,0.11-1.59,0.35-2.27c0.23-0.68,0.65-1.23,1.25-1.64c0.6-0.41,1.46-0.61,2.59-0.61h1.44
		c0.19,0,0.33,0.06,0.45,0.17c0.11,0.11,0.17,0.26,0.17,0.44v0.39c0,0.18-0.05,0.33-0.17,0.44c-0.11,0.11-0.26,0.17-0.45,0.17h-1.44
		c-0.98,0-1.64,0.26-1.98,0.79c-0.34,0.53-0.51,1.28-0.51,2.26v1.44h3.66c0.18,0,0.33,0.06,0.44,0.17c0.11,0.11,0.17,0.26,0.17,0.44
		v0.39c0,0.18-0.05,0.33-0.17,0.44c-0.11,0.11-0.26,0.17-0.44,0.17h-3.66v12.2c0,0.18-0.06,0.33-0.17,0.44
		c-0.11,0.11-0.26,0.17-0.44,0.17H629.54z"/>
	<path class="st1" d="M652.5,658.11c-1.33,0-2.44-0.28-3.34-0.83c-0.9-0.55-1.58-1.31-2.05-2.27c-0.47-0.96-0.73-2.03-0.76-3.22
		c-0.02-0.28-0.03-0.67-0.03-1.16c0-0.5,0.01-0.89,0.03-1.16c0.04-1.2,0.29-2.28,0.76-3.23c0.47-0.95,1.16-1.71,2.05-2.26
		c0.9-0.55,2.01-0.83,3.34-0.83c1.33,0,2.44,0.28,3.34,0.83c0.9,0.55,1.58,1.31,2.05,2.26s0.72,2.03,0.76,3.23
		c0.02,0.28,0.03,0.67,0.03,1.16c0,0.5-0.01,0.89-0.03,1.16c-0.04,1.18-0.29,2.26-0.76,3.22c-0.47,0.96-1.16,1.72-2.05,2.27
		C654.95,657.83,653.84,658.11,652.5,658.11z M652.5,656.5c1.29,0,2.35-0.42,3.16-1.25c0.81-0.83,1.25-2.03,1.3-3.61
		c0.02-0.28,0.03-0.62,0.03-1.03c0-0.41-0.01-0.75-0.03-1.03c-0.05-1.59-0.49-2.8-1.3-3.62c-0.81-0.82-1.87-1.23-3.16-1.23
		c-1.29,0-2.35,0.41-3.16,1.23c-0.81,0.82-1.25,2.03-1.3,3.62c-0.02,0.28-0.03,0.62-0.03,1.03c0,0.41,0.01,0.75,0.03,1.03
		c0.06,1.57,0.49,2.77,1.3,3.61C650.16,656.09,651.21,656.5,652.5,656.5z"/>
	<path class="st1" d="M672.86,657.83c-0.19,0-0.33-0.06-0.45-0.17c-0.11-0.11-0.17-0.26-0.17-0.44v-13.17
		c0-0.18,0.05-0.34,0.17-0.46c0.11-0.12,0.26-0.18,0.45-0.18h0.44c0.18,0,0.34,0.06,0.46,0.18c0.12,0.12,0.18,0.27,0.18,0.46v1.28
		c0.33-0.65,0.81-1.13,1.44-1.44c0.63-0.31,1.41-0.47,2.33-0.47h1.03c0.18,0,0.33,0.06,0.44,0.17c0.11,0.11,0.17,0.26,0.17,0.44
		v0.39c0,0.18-0.06,0.33-0.17,0.44c-0.11,0.11-0.26,0.17-0.44,0.17h-1.19c-1.11,0-1.99,0.32-2.63,0.97s-0.97,1.53-0.97,2.63v8.6
		c0,0.18-0.06,0.33-0.18,0.44c-0.12,0.11-0.27,0.17-0.46,0.17H672.86z"/>
	<path class="st1" d="M692.28,657.83c-0.19,0-0.33-0.06-0.45-0.17c-0.11-0.11-0.17-0.26-0.17-0.44v-13.2c0-0.18,0.05-0.33,0.17-0.44
		c0.11-0.11,0.26-0.17,0.45-0.17h0.47c0.18,0,0.33,0.06,0.44,0.17c0.11,0.11,0.17,0.26,0.17,0.44v0.97
		c0.46-0.59,1.01-1.05,1.65-1.37c0.64-0.32,1.41-0.48,2.32-0.48c2.07,0,3.55,0.87,4.44,2.61c0.43-0.8,1.05-1.43,1.87-1.9
		c0.82-0.47,1.77-0.71,2.84-0.71c0.98,0,1.86,0.23,2.65,0.68c0.79,0.45,1.41,1.12,1.86,2.01c0.45,0.89,0.68,2,0.68,3.33v8.07
		c0,0.18-0.06,0.33-0.17,0.44c-0.11,0.11-0.26,0.17-0.45,0.17h-0.47c-0.19,0-0.33-0.06-0.45-0.17c-0.11-0.11-0.17-0.26-0.17-0.44
		v-7.79c0-1.22-0.18-2.17-0.53-2.84c-0.35-0.67-0.81-1.15-1.39-1.43c-0.57-0.28-1.19-0.42-1.86-0.42c-0.56,0-1.12,0.14-1.69,0.42
		c-0.57,0.28-1.05,0.75-1.43,1.43s-0.57,1.62-0.57,2.84v7.79c0,0.18-0.06,0.33-0.17,0.44c-0.11,0.11-0.26,0.17-0.44,0.17h-0.47
		c-0.19,0-0.33-0.06-0.45-0.17c-0.11-0.11-0.17-0.26-0.17-0.44v-7.79c0-1.22-0.18-2.17-0.55-2.84s-0.84-1.15-1.41-1.43
		c-0.57-0.28-1.17-0.42-1.8-0.42c-0.56,0-1.12,0.14-1.69,0.42c-0.57,0.28-1.05,0.75-1.43,1.43s-0.57,1.61-0.57,2.82v7.82
		c0,0.18-0.06,0.33-0.17,0.44c-0.11,0.11-0.26,0.17-0.44,0.17H692.28z"/>
	<path class="st1" d="M729.66,658.11c-0.89,0-1.7-0.18-2.45-0.55c-0.75-0.37-1.35-0.86-1.82-1.48c-0.46-0.62-0.69-1.32-0.69-2.09
		c0-1.26,0.51-2.26,1.53-3.02c1.02-0.76,2.34-1.25,3.97-1.47l4.38-0.61v-0.97c0-0.98-0.3-1.75-0.9-2.32
		c-0.6-0.56-1.56-0.85-2.87-0.85c-0.96,0-1.74,0.19-2.33,0.57c-0.59,0.38-1,0.87-1.22,1.48c-0.09,0.28-0.27,0.42-0.53,0.42h-0.44
		c-0.22,0-0.38-0.06-0.47-0.18c-0.09-0.12-0.14-0.26-0.14-0.43c0-0.26,0.1-0.58,0.29-0.97s0.49-0.77,0.9-1.15
		c0.41-0.38,0.93-0.7,1.58-0.96c0.65-0.26,1.43-0.39,2.36-0.39c1.09,0,1.99,0.15,2.7,0.44c0.71,0.3,1.27,0.68,1.66,1.15
		s0.68,0.99,0.85,1.57c0.17,0.57,0.25,1.14,0.25,1.69v9.24c0,0.18-0.06,0.33-0.17,0.44c-0.11,0.11-0.26,0.17-0.44,0.17h-0.47
		c-0.19,0-0.33-0.06-0.44-0.17c-0.11-0.11-0.17-0.26-0.17-0.44v-1.3c-0.22,0.33-0.54,0.67-0.94,1c-0.41,0.33-0.93,0.61-1.57,0.85
		C731.42,657.99,730.62,658.11,729.66,658.11z M729.94,656.5c0.85,0,1.63-0.18,2.33-0.55c0.7-0.37,1.26-0.94,1.68-1.71
		c0.42-0.77,0.62-1.73,0.62-2.9v-0.94l-3.58,0.5c-1.52,0.2-2.66,0.55-3.44,1.05c-0.78,0.5-1.16,1.13-1.16,1.89
		c0,0.61,0.18,1.11,0.53,1.5c0.35,0.39,0.8,0.68,1.35,0.87C728.81,656.4,729.37,656.5,729.94,656.5z"/>
</g>
<g>
	<path class="st2" d="M139.21,617.65c-1.04,0-1.99-0.38-2.84-1.15c-0.85-0.77-1.27-1.72-1.27-2.87c0-0.51,0.13-1.08,0.39-1.72
		l47.14-123.35c0.39-1.27,1.14-2.39,2.25-3.35c1.11-0.96,2.64-1.43,4.6-1.43h21.32c1.96,0,3.45,0.48,4.5,1.43
		c1.04,0.96,1.82,2.07,2.35,3.35l47.14,123.35c0.13,0.64,0.2,1.21,0.2,1.72c0,1.15-0.39,2.1-1.17,2.87
		c-0.78,0.77-1.7,1.15-2.74,1.15h-17.02c-1.83,0-3.16-0.41-4.01-1.24c-0.85-0.83-1.4-1.63-1.66-2.39l-9.19-23.33h-58.09l-9.19,23.33
		c-0.26,0.77-0.82,1.56-1.66,2.39c-0.85,0.83-2.18,1.24-4.01,1.24H139.21z M177.94,568.69h44.4l-22.3-59.09L177.94,568.69z"/>
	<path class="st2" d="M331.28,619.56c-12,0-22.2-2.04-30.61-6.12c-8.41-4.08-14.93-9.98-19.56-17.69
		c-4.63-7.71-7.14-16.92-7.53-27.63c-0.13-5.48-0.2-11.38-0.2-17.69s0.06-12.27,0.2-17.88c0.39-10.58,2.9-19.63,7.53-27.16
		c4.63-7.52,11.21-13.32,19.75-17.4c8.54-4.08,18.68-6.12,30.41-6.12c9.52,0,17.86,1.24,25.04,3.73c7.17,2.49,13.13,5.67,17.9,9.56
		c4.76,3.89,8.34,8.07,10.76,12.53c2.41,4.46,3.68,8.61,3.81,12.43c0.13,1.15-0.2,2.1-0.98,2.87c-0.78,0.76-1.83,1.15-3.13,1.15
		h-20.15c-1.3,0-2.28-0.25-2.93-0.77c-0.65-0.51-1.24-1.27-1.76-2.29c-1.04-2.68-2.67-5.32-4.89-7.94c-2.22-2.61-5.22-4.81-9-6.6
		c-3.78-1.78-8.67-2.68-14.67-2.68c-8.87,0-15.94,2.3-21.22,6.89s-8.12,12.18-8.51,22.76c-0.39,11.09-0.39,22.31,0,33.66
		c0.39,10.84,3.29,18.62,8.7,23.33c5.41,4.72,12.55,7.08,21.42,7.08c5.87,0,11.12-1.02,15.75-3.06c4.63-2.04,8.28-5.23,10.95-9.56
		c2.67-4.33,4.01-9.88,4.01-16.64v-5.93h-23.86c-1.3,0-2.41-0.45-3.32-1.34c-0.91-0.89-1.37-2.04-1.37-3.44v-10.14
		c0-1.4,0.46-2.55,1.37-3.44c0.91-0.89,2.02-1.34,3.32-1.34h46.75c1.43,0,2.57,0.45,3.42,1.34c0.85,0.89,1.27,2.04,1.27,3.44v20.08
		c0,10.71-2.38,19.95-7.14,27.73c-4.76,7.78-11.54,13.77-20.34,17.98C353.68,617.46,343.28,619.56,331.28,619.56z"/>
	<path class="st2" d="M415.97,617.65c-1.3,0-2.35-0.38-3.13-1.15c-0.78-0.77-1.17-1.78-1.17-3.06v-9.18c0-1.27,0.39-2.32,1.17-3.16
		c0.78-0.83,1.82-1.24,3.13-1.24h9.39c1.3,0,2.38,0.42,3.23,1.24c0.85,0.83,1.27,1.88,1.27,3.16v9.18c0,1.28-0.43,2.29-1.27,3.06
		c-0.85,0.77-1.93,1.15-3.23,1.15H415.97z"/>
	<path class="st2" d="M456.07,617.65c-1.31,0-2.35-0.38-3.13-1.15c-0.78-0.77-1.17-1.78-1.17-3.06V486.08c0-1.27,0.39-2.3,1.17-3.06
		c0.78-0.77,1.82-1.15,3.13-1.15h3.32c1.3,0,2.35,0.38,3.13,1.15c0.78,0.77,1.17,1.79,1.17,3.06v127.37c0,1.28-0.39,2.29-1.17,3.06
		c-0.78,0.77-1.83,1.15-3.13,1.15H456.07z"/>
	<path class="st2" d="M520.61,619.56c-6.26,0-12.03-1.28-17.31-3.82c-5.28-2.55-9.55-5.96-12.81-10.23
		c-3.26-4.27-4.89-9.08-4.89-14.44c0-8.67,3.58-15.62,10.76-20.85c7.17-5.23,16.49-8.61,27.97-10.14l30.9-4.21v-6.69
		c0-6.76-2.12-12.08-6.36-15.97c-4.24-3.89-10.99-5.83-20.24-5.83c-6.78,0-12.26,1.31-16.43,3.92c-4.17,2.61-7.04,6.02-8.61,10.23
		c-0.65,1.91-1.89,2.87-3.72,2.87h-3.13c-1.56,0-2.67-0.41-3.32-1.24c-0.65-0.83-0.98-1.82-0.98-2.96c0-1.78,0.69-4.02,2.05-6.69
		c1.37-2.68,3.49-5.32,6.36-7.94c2.87-2.61,6.58-4.81,11.15-6.6c4.56-1.78,10.1-2.68,16.63-2.68c7.69,0,14.05,1.02,19.07,3.06
		c5.02,2.04,8.93,4.69,11.74,7.94c2.8,3.25,4.79,6.85,5.96,10.81c1.17,3.95,1.76,7.84,1.76,11.67v63.68c0,1.28-0.39,2.29-1.17,3.06
		c-0.78,0.77-1.83,1.15-3.13,1.15h-3.32c-1.3,0-2.35-0.38-3.13-1.15c-0.78-0.77-1.17-1.78-1.17-3.06v-8.99
		c-1.56,2.3-3.78,4.59-6.65,6.89c-2.87,2.29-6.55,4.24-11.05,5.83C533.03,618.77,527.39,619.56,520.61,619.56z M522.57,608.47
		c6,0,11.47-1.27,16.43-3.82c4.95-2.55,8.9-6.47,11.83-11.76c2.93-5.29,4.4-11.95,4.4-19.98v-6.5L530,569.84
		c-10.69,1.4-18.78,3.82-24.25,7.27c-5.48,3.44-8.21,7.78-8.21,13c0,4.21,1.24,7.65,3.72,10.33c2.48,2.68,5.64,4.69,9.49,6.02
		C514.58,607.8,518.52,608.47,522.57,608.47z"/>
	<path class="st2" d="M636.87,619.56c-8.09,0-14.77-1.43-20.05-4.3c-5.28-2.87-9.55-6.47-12.81-10.81v8.99
		c0,1.28-0.39,2.29-1.17,3.06c-0.78,0.77-1.83,1.15-3.13,1.15h-3.32c-1.31,0-2.35-0.38-3.13-1.15c-0.78-0.77-1.17-1.78-1.17-3.06
		V486.08c0-1.27,0.39-2.3,1.17-3.06c0.78-0.77,1.82-1.15,3.13-1.15h3.32c1.3,0,2.35,0.38,3.13,1.15c0.78,0.77,1.17,1.79,1.17,3.06
		v45.32c3.26-4.21,7.53-7.77,12.81-10.71c5.28-2.93,11.96-4.4,20.05-4.4c7.69,0,14.15,1.34,19.36,4.02
		c5.21,2.68,9.45,6.25,12.71,10.71c3.26,4.46,5.67,9.44,7.24,14.92c1.56,5.48,2.41,11.03,2.54,16.64c0.13,1.91,0.2,3.7,0.2,5.35
		c0,1.66-0.07,3.44-0.2,5.36c-0.13,5.61-0.98,11.16-2.54,16.64c-1.56,5.48-3.98,10.46-7.24,14.92c-3.26,4.46-7.5,8.03-12.71,10.71
		C651.02,618.23,644.57,619.56,636.87,619.56z M635.7,608.47c7.69,0,13.76-1.65,18.19-4.97c4.43-3.31,7.63-7.65,9.58-13
		c1.96-5.36,3.06-11.09,3.32-17.21c0.13-3.57,0.13-7.14,0-10.71c-0.26-6.12-1.37-11.86-3.32-17.21c-1.96-5.36-5.15-9.69-9.58-13.01
		c-4.43-3.31-10.5-4.97-18.19-4.97c-7.17,0-13.07,1.66-17.7,4.97c-4.63,3.32-8.09,7.46-10.37,12.43
		c-2.28,4.97-3.49,10.01-3.62,15.11c-0.13,1.91-0.2,4.4-0.2,7.46c0,3.06,0.06,5.55,0.2,7.46c0.26,5.23,1.47,10.42,3.62,15.59
		c2.15,5.16,5.51,9.47,10.07,12.91C622.27,606.75,628.27,608.47,635.7,608.47z"/>
	<path class="st2" d="M736.73,619.56c-6.78,0-12.62-0.89-17.51-2.68c-4.89-1.78-8.9-3.92-12.03-6.41c-3.13-2.49-5.45-4.94-6.94-7.36
		c-1.5-2.42-2.32-4.27-2.44-5.55c-0.13-1.4,0.32-2.45,1.37-3.16c1.04-0.7,2.02-1.05,2.93-1.05h2.93c0.78,0,1.47,0.13,2.05,0.38
		c0.59,0.26,1.34,0.96,2.25,2.1c1.69,2.17,3.65,4.24,5.87,6.22c2.22,1.98,5.05,3.54,8.51,4.69c3.45,1.15,7.79,1.72,13.01,1.72
		c7.82,0,14.28-1.46,19.36-4.4c5.09-2.93,7.63-7.27,7.63-13.01c0-3.57-1.01-6.44-3.03-8.61c-2.02-2.17-5.45-4.08-10.27-5.74
		c-4.83-1.65-11.34-3.38-19.56-5.16c-8.21-1.91-14.51-4.21-18.88-6.89c-4.37-2.68-7.33-5.77-8.9-9.28c-1.56-3.5-2.35-7.3-2.35-11.38
		c0-4.46,1.3-8.83,3.91-13.1c2.61-4.27,6.48-7.78,11.64-10.52c5.15-2.74,11.64-4.11,19.46-4.11c6.39,0,11.83,0.83,16.33,2.49
		c4.5,1.66,8.18,3.67,11.05,6.02c2.87,2.36,4.99,4.69,6.36,6.98c1.37,2.3,2.12,4.14,2.25,5.55c0.13,1.28-0.26,2.3-1.17,3.06
		c-0.91,0.77-1.96,1.15-3.13,1.15h-2.93c-1.05,0-1.89-0.22-2.54-0.67c-0.65-0.45-1.24-1.05-1.76-1.82c-1.3-2.04-2.87-3.95-4.69-5.74
		c-1.83-1.78-4.27-3.22-7.33-4.3c-3.06-1.08-7.21-1.63-12.42-1.63c-7.82,0-13.63,1.56-17.41,4.69c-3.78,3.13-5.67,7.11-5.67,11.95
		c0,2.81,0.78,5.26,2.35,7.36c1.56,2.1,4.5,4.02,8.8,5.74c4.3,1.72,10.56,3.54,18.78,5.45c8.34,1.79,14.93,3.99,19.75,6.6
		c4.82,2.61,8.25,5.71,10.27,9.28c2.02,3.57,3.03,7.78,3.03,12.62c0,5.1-1.47,9.82-4.4,14.15c-2.93,4.34-7.3,7.81-13.1,10.42
		C752.35,618.26,745.21,619.56,736.73,619.56z"/>
</g>
<g>
	<g>
		<circle class="st2" cx="446.89" cy="288.61" r="13.13"/>
	</g>
</g>
<g>
	<path class="st1" d="M542.42,308.16l-42.91-15.15c-7.47-2.63-15.65,1.28-18.29,8.74s1.28,15.65,8.74,18.29l42.91,15.15
		c3.18,1.12,3.7,3.72,3.74,5.16c0.03,1.45-0.39,4.06-3.51,5.32l-168.77,67.71c-11.12,4.46-18.9-2.24-21.03-4.4
		c-2.12-2.16-8.69-10.06-4.04-21.1l89.88-213.54c4.61-10.96,14.78-11.81,17.78-11.81c3.01,0,13.17,0.85,17.78,11.81l41.88,99.47
		c3.07,7.3,11.47,10.72,18.78,7.65c7.3-3.07,10.72-11.48,7.65-18.77l-41.88-99.47c-7.62-18.11-24.56-29.35-44.21-29.35
		c-19.65,0-36.58,11.25-44.2,29.36l-89.88,213.54c-7.66,18.2-3.82,38.24,10.02,52.32c9.32,9.48,21.43,14.48,33.95,14.48
		c6.06,0,12.22-1.17,18.19-3.57l168.77-67.71c13.37-5.36,21.81-18.13,21.5-32.53C564.97,325.35,556,312.95,542.42,308.16z"/>
	<path class="st1" d="M600.77,423.7l-15.14-35.98c-3.07-7.3-11.48-10.72-18.77-7.65c-7.3,3.07-10.72,11.48-7.65,18.77l15.14,35.98
		c2.31,5.48,7.62,8.78,13.22,8.78c1.85,0,3.74-0.36,5.56-1.13C600.42,439.4,603.84,431,600.77,423.7z"/>
</g>
</svg>
